<svg width="399" height="129" viewBox="0 0 399 129" fill="none" xmlns="http://www.w3.org/2000/svg">
<path d="M172.33 47.901V53.091H159.85V47.901H172.33ZM156.19 57.711H159.85V56.511H172.33V57.681H176.17V44.511H156.19V57.711ZM169.24 34.821C170.17 35.631 171.16 36.531 172.12 37.491C168.67 37.641 165.19 37.791 161.95 37.911C163.39 35.721 164.89 33.201 166.15 30.831L162.04 29.511C161.02 32.151 159.31 35.451 157.63 38.061C155.95 38.091 154.39 38.151 153.01 38.181L153.22 41.781C158.8 41.571 167.17 41.241 175.09 40.821C175.9 41.811 176.56 42.741 177.01 43.551L180.1 41.181C178.57 38.601 175 35.151 172.03 32.721L169.24 34.821ZM201.67 30.231H196.45V31.941H201.67V30.231ZM188.95 33.111C188.05 32.151 186.1 30.891 184.63 30.081L182.59 32.511C184.09 33.411 185.95 34.791 186.79 35.781L188.95 33.111ZM188.38 40.761C187.39 39.831 185.44 38.661 183.91 37.941L181.96 40.431C183.46 41.241 185.41 42.561 186.28 43.491L188.38 40.761ZM185.8 57.381C187 54.471 188.23 50.991 189.19 47.781L186.37 45.981C185.26 49.491 183.73 53.271 182.65 55.611L185.8 57.381ZM199.78 42.981H198.28V41.661H199.78V42.981ZM191.26 44.841H193.51V38.871L194.44 38.781C194.5 39.081 194.53 39.351 194.56 39.591L196.18 38.991C196.06 38.061 195.64 36.621 195.13 35.541L193.63 36.081C193.72 36.321 193.81 36.591 193.9 36.861L192.61 36.891C193.54 35.841 194.5 34.611 195.37 33.471V34.551H202.54V34.221C203.23 34.821 203.89 35.541 204.34 36.141C204.07 36.441 203.8 36.771 203.56 37.041L202.15 37.071L202.36 39.231L204.94 39.081V40.191L202.99 39.741C202.75 40.851 202.42 42.051 201.94 43.041V40.071H196.21V44.571H201.94V43.581C202.48 43.821 203.2 44.211 203.56 44.481C204.07 43.521 204.61 42.081 204.94 40.731V44.841H207.22V38.961L208.39 38.871C208.45 39.141 208.51 39.381 208.54 39.591L210.34 38.811C210.13 37.821 209.56 36.351 208.96 35.271L207.25 35.961C207.4 36.261 207.55 36.591 207.7 36.921L206.05 36.951C207.13 35.781 208.27 34.401 209.26 33.171L207.28 32.061C206.89 32.751 206.35 33.531 205.75 34.341C205.57 34.131 205.36 33.891 205.12 33.681C205.75 32.811 206.44 31.701 207.13 30.681L205.09 29.691C204.76 30.441 204.22 31.521 203.71 32.451L203.32 32.151L202.54 33.201V32.691H195.37V33.201L193.57 32.181C193.24 32.781 192.79 33.441 192.31 34.161C192.13 33.951 191.89 33.771 191.68 33.561C192.25 32.691 192.91 31.641 193.54 30.621L191.53 29.601C191.2 30.411 190.69 31.491 190.18 32.391C190.03 32.301 189.85 32.181 189.7 32.091L188.59 33.831C189.4 34.431 190.3 35.241 190.96 35.961C190.69 36.321 190.39 36.681 190.12 37.011L188.29 37.071L188.53 39.231C189.37 39.171 190.3 39.111 191.26 39.021V40.191L189.28 39.741C189.01 41.091 188.59 42.531 187.9 43.611C188.44 43.821 189.34 44.271 189.79 44.541C190.36 43.551 190.9 42.081 191.26 40.731V44.841ZM207.31 40.281C207.82 41.511 208.36 43.101 208.54 44.151L210.43 43.521C210.19 42.501 209.62 40.941 209.11 39.741L207.31 40.281ZM196.24 39.261H201.94V37.641H196.24V39.261ZM201.94 35.331H196.24V36.951H201.94V35.331ZM196.12 43.011C195.97 42.171 195.64 40.851 195.31 39.861L193.6 40.251C193.9 41.301 194.2 42.651 194.32 43.521L196.12 43.011ZM194.02 51.261L194.26 50.331H207.55V45.351H190.54V47.361H204.25V48.291H191.44C191.08 50.151 190.51 52.371 189.97 53.901L193.18 54.321C193.27 54.051 193.36 53.751 193.45 53.451H205.27C205 54.291 204.73 54.771 204.4 55.011C204.1 55.221 203.74 55.251 203.14 55.251C202.39 55.251 200.41 55.221 198.61 55.041C199.12 55.791 199.51 56.871 199.57 57.651C201.43 57.711 203.26 57.741 204.22 57.711C205.42 57.651 206.26 57.501 207.01 56.931C207.82 56.271 208.36 54.951 208.84 52.551C208.96 52.131 209.02 51.261 209.02 51.261H194.02ZM228.49 31.911C230.68 36.021 234.13 40.761 236.95 43.791C237.64 42.801 239.02 41.421 239.95 40.671C237.22 38.151 233.8 33.951 232.06 30.441L228.49 31.911ZM220.06 30.381C218.5 34.551 215.68 38.661 212.59 41.091C213.52 41.661 215.29 43.011 216.01 43.761C219.07 40.911 222.22 36.261 224.14 31.551L220.06 30.381ZM229 47.211C230.11 48.681 231.31 50.391 232.39 52.071C228.91 52.251 225.4 52.431 222.16 52.581C223.99 49.341 225.94 45.321 227.5 41.631L223.21 40.641C222.07 44.391 220 49.191 218.08 52.761L213.91 52.911L214.39 56.661C219.67 56.421 227.23 55.971 234.43 55.491C234.94 56.361 235.36 57.171 235.66 57.891L239.38 55.941C237.91 53.061 235.09 48.831 232.48 45.591L229 47.211ZM249.01 46.041V44.211H254.23V46.041H249.01ZM249.01 39.711H254.23V41.541H249.01V39.711ZM263.14 39.711V41.541H257.89V39.711H263.14ZM263.14 46.041H257.89V44.211H263.14V46.041ZM269.86 50.511H257.89V48.891H266.74V36.861H257.89V35.421H268.99V32.181H257.89V29.751H254.23V32.181H243.34V35.421H254.23V36.861H245.59V48.891H254.23V50.511H242.62V53.721H254.23V57.771H257.89V53.721H269.86V50.511ZM288.063 38.451C290.323 38.451 292.113 39.101 293.433 40.401C294.753 41.681 295.413 43.511 295.413 45.891V48.051H284.853C284.893 49.311 285.263 50.301 285.963 51.021C286.683 51.741 287.673 52.101 288.933 52.101C289.993 52.101 290.953 52.001 291.813 51.801C292.673 51.581 293.563 51.251 294.483 50.811V54.261C293.683 54.661 292.833 54.951 291.933 55.131C291.053 55.331 289.983 55.431 288.723 55.431C287.083 55.431 285.633 55.131 284.373 54.531C283.113 53.911 282.123 52.981 281.403 51.741C280.683 50.501 280.323 48.941 280.323 47.061C280.323 45.141 280.643 43.551 281.283 42.291C281.943 41.011 282.853 40.051 284.013 39.411C285.173 38.771 286.523 38.451 288.063 38.451ZM288.093 41.631C287.233 41.631 286.513 41.911 285.933 42.471C285.373 43.031 285.043 43.901 284.943 45.081H291.213C291.193 44.081 290.933 43.261 290.433 42.621C289.933 41.961 289.153 41.631 288.093 41.631ZM309.2 34.491C309.62 35.841 309.92 37.521 309.98 38.661L311.57 38.181C311.48 37.011 311.09 35.241 310.61 33.861L309.2 34.281V33.021H311.72V39.531H309.2V34.491ZM316.46 34.341L315.02 33.831C314.81 35.031 314.3 36.771 313.88 37.971V33.021H316.46V34.341ZM313.88 39.531V38.241L315.11 38.691C315.5 37.821 315.98 36.531 316.46 35.271V39.531H313.88ZM305.96 50.541C309.59 50.391 314.72 50.121 319.58 49.821L319.64 47.061C317.9 47.121 316.1 47.211 314.36 47.271V45.951H319.16V43.251H314.36V41.931H319.22V30.621H306.53V41.931H311.21V43.251H306.59V45.951H311.21V47.391C309.2 47.451 307.37 47.511 305.87 47.541L305.96 50.541ZM307.52 57.741C308.78 56.361 309.29 54.081 309.65 51.951L307.25 51.231C306.98 53.211 306.29 55.281 305.21 56.541L307.52 57.741ZM309.86 51.411C310.19 53.091 310.43 55.251 310.37 56.661L312.68 56.391C312.65 54.951 312.41 52.821 312.05 51.141L309.86 51.411ZM312.86 51.291C313.43 52.881 313.94 54.951 314.06 56.301L316.28 55.851C316.1 54.471 315.56 52.461 314.99 50.871L312.86 51.291ZM315.77 51.021C316.7 52.521 317.6 54.501 317.96 55.821L320.21 54.891C319.82 53.571 318.86 51.651 317.9 50.241L315.77 51.021ZM329.06 53.331H323.51V47.061H329.06V53.331ZM333.47 39.201V35.901H327.68V29.751H324.2V43.821H320.27V57.711H323.51V56.541H329.06V57.591H332.48V43.821H327.68V39.201H333.47ZM352.13 39.801V41.421H348.68V39.801H352.13ZM358.85 41.421H355.31V39.801H358.85V41.421ZM355.31 45.591V43.911H358.85V45.591H355.31ZM348.68 45.591V43.911H352.13V45.591H348.68ZM348.68 48.171H352.13V52.551H355.31V48.171H358.85V49.551C358.85 49.851 358.76 49.971 358.4 50.001C358.1 50.001 357.05 50.001 356.12 49.971C356.51 50.721 356.87 51.891 356.99 52.761C358.79 52.761 360.08 52.761 361.04 52.251C362 51.771 362.27 51.021 362.27 49.581V37.221H358.64C358.13 36.921 357.5 36.621 356.84 36.291C358.79 35.091 360.68 33.651 362.18 32.241L360.05 30.531L359.36 30.711H345.59V33.411H356.27C355.52 33.951 354.71 34.521 353.87 35.001C352.64 34.461 351.38 33.981 350.33 33.591L348.02 35.511C349.25 35.991 350.69 36.591 352.04 37.221H345.32V52.671H348.68V48.171ZM343.67 34.971C342.59 33.531 340.28 31.611 338.45 30.351L335.99 32.631C337.82 34.011 340.07 36.081 341 37.521L343.67 34.971ZM342.77 41.361H335.54V44.631H339.35V51.171C337.97 52.191 336.44 53.181 335.15 53.901L336.8 57.471C338.48 56.211 339.89 55.041 341.27 53.871C343.07 56.181 345.44 57.051 349.04 57.201C352.7 57.351 359.06 57.291 362.75 57.111C362.9 56.121 363.44 54.471 363.86 53.631C359.75 53.961 352.64 54.051 349.07 53.901C346.01 53.781 343.94 52.941 342.77 50.931V41.361Z" fill="black"/>
<path d="M167.212 72.5518H161.608V87.7241H160.227V72.5518H154.634V71.3726H167.212V72.5518ZM176.858 87.7241C176.724 87.3423 176.638 86.777 176.6 86.0283C176.128 86.6423 175.526 87.1177 174.792 87.4546C174.066 87.784 173.295 87.9487 172.479 87.9487C171.311 87.9487 170.364 87.623 169.637 86.9717C168.919 86.3203 168.559 85.4967 168.559 84.501C168.559 83.318 169.05 82.3822 170.03 81.6934C171.019 81.0046 172.392 80.6602 174.152 80.6602H176.589V79.2788C176.589 78.4103 176.319 77.729 175.78 77.2349C175.249 76.7332 174.47 76.4824 173.444 76.4824C172.509 76.4824 171.734 76.722 171.12 77.2012C170.506 77.6803 170.199 78.2568 170.199 78.9307L168.851 78.9194C168.851 77.9536 169.3 77.1188 170.199 76.415C171.097 75.7038 172.202 75.3481 173.512 75.3481C174.867 75.3481 175.934 75.6888 176.712 76.3701C177.499 77.0439 177.903 77.9873 177.925 79.2002V84.9502C177.925 86.1257 178.049 87.0054 178.296 87.5894V87.7241H176.858ZM172.636 86.7583C173.534 86.7583 174.335 86.5412 175.039 86.1069C175.75 85.6727 176.267 85.0924 176.589 84.3662V81.6934H174.186C172.845 81.7083 171.797 81.9554 171.041 82.4346C170.285 82.9062 169.907 83.5576 169.907 84.3887C169.907 85.07 170.158 85.6353 170.659 86.0845C171.168 86.5337 171.827 86.7583 172.636 86.7583ZM183.944 87.7241H182.596V75.5728H183.944V87.7241ZM182.361 72.0576C182.361 71.8031 182.443 71.5897 182.608 71.4175C182.772 71.2378 182.997 71.1479 183.281 71.1479C183.566 71.1479 183.791 71.2378 183.955 71.4175C184.127 71.5897 184.214 71.8031 184.214 72.0576C184.214 72.3122 184.127 72.5256 183.955 72.6978C183.791 72.87 183.566 72.9561 183.281 72.9561C182.997 72.9561 182.772 72.87 182.608 72.6978C182.443 72.5256 182.361 72.3122 182.361 72.0576ZM191.434 84.9277L191.636 85.9722L191.906 84.8716L194.825 75.5728H195.971L198.857 84.793L199.172 86.0732L199.43 84.894L201.923 75.5728H203.316L199.778 87.7241H198.633L195.51 78.0884L195.364 77.4258L195.218 78.0996L192.153 87.7241H191.007L187.481 75.5728H188.862L191.434 84.9277ZM214.455 87.7241C214.321 87.3423 214.235 86.777 214.197 86.0283C213.725 86.6423 213.123 87.1177 212.389 87.4546C211.663 87.784 210.892 87.9487 210.076 87.9487C208.908 87.9487 207.96 87.623 207.234 86.9717C206.515 86.3203 206.156 85.4967 206.156 84.501C206.156 83.318 206.646 82.3822 207.627 81.6934C208.616 81.0046 209.989 80.6602 211.749 80.6602H214.186V79.2788C214.186 78.4103 213.916 77.729 213.377 77.2349C212.846 76.7332 212.067 76.4824 211.041 76.4824C210.105 76.4824 209.331 76.722 208.717 77.2012C208.103 77.6803 207.796 78.2568 207.796 78.9307L206.448 78.9194C206.448 77.9536 206.897 77.1188 207.796 76.415C208.694 75.7038 209.798 75.3481 211.109 75.3481C212.464 75.3481 213.531 75.6888 214.309 76.3701C215.096 77.0439 215.5 77.9873 215.522 79.2002V84.9502C215.522 86.1257 215.646 87.0054 215.893 87.5894V87.7241H214.455ZM210.233 86.7583C211.131 86.7583 211.932 86.5412 212.636 86.1069C213.347 85.6727 213.864 85.0924 214.186 84.3662V81.6934H211.783C210.442 81.7083 209.394 81.9554 208.638 82.4346C207.882 82.9062 207.504 83.5576 207.504 84.3887C207.504 85.07 207.755 85.6353 208.256 86.0845C208.765 86.5337 209.424 86.7583 210.233 86.7583ZM221.316 75.5728L221.361 77.6504C221.818 76.9017 222.387 76.3327 223.068 75.9434C223.75 75.5465 224.502 75.3481 225.326 75.3481C226.628 75.3481 227.598 75.715 228.234 76.4487C228.871 77.1825 229.193 78.283 229.2 79.7505V87.7241H227.864V79.7393C227.856 78.6536 227.624 77.8451 227.167 77.3135C226.718 76.7819 225.996 76.5161 225 76.5161C224.169 76.5161 223.431 76.7782 222.787 77.3022C222.151 77.8188 221.679 78.5189 221.372 79.4023V87.7241H220.036V75.5728H221.316ZM240.429 87.7241V71.3726H245.258C247.01 71.3726 248.339 71.7357 249.245 72.4619C250.151 73.1807 250.604 74.2438 250.604 75.6514C250.604 76.4974 250.371 77.2349 249.907 77.8638C249.451 78.4852 248.822 78.9307 248.021 79.2002C248.971 79.4098 249.735 79.8778 250.312 80.604C250.896 81.3302 251.188 82.1688 251.188 83.1196C251.188 84.5646 250.72 85.6951 249.784 86.5112C248.855 87.3198 247.56 87.7241 245.898 87.7241H240.429ZM241.81 79.8628V86.5562H245.954C247.137 86.5562 248.073 86.2567 248.762 85.6577C249.458 85.0513 249.806 84.2127 249.806 83.1421C249.806 82.1313 249.473 81.334 248.807 80.75C248.148 80.1585 247.234 79.8628 246.066 79.8628H241.81ZM241.81 78.7061H245.584C246.737 78.6836 247.628 78.4141 248.256 77.8975C248.893 77.3734 249.211 76.6134 249.211 75.6177C249.211 74.5695 248.882 73.7983 248.223 73.3042C247.571 72.8026 246.583 72.5518 245.258 72.5518H241.81V78.7061ZM262.956 86.1855C262.148 87.361 260.856 87.9487 259.082 87.9487C257.786 87.9487 256.802 87.5744 256.128 86.8257C255.454 86.0695 255.11 84.9539 255.095 83.479V75.5728H256.431V83.3105C256.431 85.624 257.367 86.7808 259.239 86.7808C261.186 86.7808 262.417 85.9759 262.934 84.3662V75.5728H264.281V87.7241H262.979L262.956 86.1855ZM275.983 84.6357C275.983 83.9694 275.713 83.4341 275.174 83.0298C274.642 82.6255 273.838 82.311 272.759 82.0864C271.681 81.8543 270.843 81.5923 270.244 81.3003C269.652 81.0008 269.211 80.6377 268.919 80.2109C268.634 79.7842 268.492 79.2676 268.492 78.6611C268.492 77.7028 268.892 76.9129 269.694 76.2915C270.495 75.6626 271.52 75.3481 272.771 75.3481C274.126 75.3481 275.211 75.6851 276.028 76.3589C276.851 77.0252 277.263 77.8975 277.263 78.9756H275.915C275.915 78.2643 275.616 77.6729 275.017 77.2012C274.425 76.7295 273.677 76.4937 272.771 76.4937C271.887 76.4937 271.176 76.6921 270.637 77.0889C270.105 77.4782 269.84 77.9873 269.84 78.6162C269.84 79.2227 270.06 79.6943 270.502 80.0312C270.951 80.3607 271.764 80.6639 272.939 80.9409C274.122 81.2179 275.006 81.5137 275.59 81.8281C276.181 82.1426 276.619 82.5207 276.904 82.9624C277.188 83.4041 277.33 83.9395 277.33 84.5684C277.33 85.5941 276.915 86.4139 276.084 87.0278C275.26 87.6418 274.182 87.9487 272.849 87.9487C271.434 87.9487 270.285 87.6081 269.402 86.9268C268.526 86.238 268.088 85.3695 268.088 84.3213H269.435C269.488 85.1074 269.817 85.7214 270.424 86.1631C271.037 86.5973 271.846 86.8145 272.849 86.8145C273.785 86.8145 274.541 86.6086 275.118 86.1968C275.694 85.785 275.983 85.2646 275.983 84.6357ZM286.606 79.4136H291.581V80.6714H286.606V86.0845H285.247V80.6714H280.373V79.4136H285.247V74.1802H286.606V79.4136Z" fill="black"/>
<g clip-path="url(#clip0_1327_8707)">
<path d="M98.8701 114H57.1299C41.1148 114 28 100.885 28 84.8701V43.1299C28 27.1148 41.1148 14 57.1299 14H98.8701C114.885 14 128 27.1148 128 43.1299V84.8701C128 100.885 114.885 114 98.8701 114Z" fill="#355F8B"/>
<path d="M94.5195 92.1841H91.9975C90.8625 92.1841 89.9167 91.2383 89.9167 90.1034V87.5813C89.9167 86.4464 90.8625 85.5006 91.9975 85.5006H94.5195C95.6545 85.5006 96.6002 86.4464 96.6002 87.5813V90.1034C96.6002 91.2383 95.7175 92.1841 94.5195 92.1841Z" fill="white"/>
<path d="M64.0024 92.1841H61.4804C60.3454 92.1841 59.3997 91.2383 59.3997 90.1034V87.5813C59.3997 86.4464 60.3454 85.5006 61.4804 85.5006H64.0024C65.1374 85.5006 66.0831 86.4464 66.0831 87.5813V90.1034C66.0201 91.2383 65.1374 92.1841 64.0024 92.1841Z" fill="white"/>
<path d="M90.4842 75.5385H87.9622C86.8272 75.5385 85.8815 74.5927 85.8815 73.4578V70.9357C85.8815 69.8008 86.8272 68.855 87.9622 68.855H90.4842C91.6192 68.855 92.5649 69.8008 92.5649 70.9357V73.4578C92.5649 74.5927 91.6192 75.5385 90.4842 75.5385Z" fill="white"/>
<path d="M67.9747 75.5385H65.4527C64.3177 75.5385 63.3719 74.5927 63.3719 73.4578V70.9357C63.3719 69.8008 64.3177 68.855 65.4527 68.855H67.9747C69.1097 68.855 70.0554 69.8008 70.0554 70.9357V73.4578C70.0554 74.5927 69.1097 75.5385 67.9747 75.5385Z" fill="white"/>
<path d="M53.7251 53.1552H47.1677C46.0958 53.1552 45.2761 52.3355 45.2761 51.2636C45.2761 50.1917 46.0958 49.3721 47.1677 49.3721H53.662C54.7339 49.3721 55.5536 50.1917 55.5536 51.2636C55.6166 52.2724 54.7339 53.1552 53.7251 53.1552Z" fill="white"/>
<path d="M108.769 53.1552H102.275C101.203 53.1552 100.383 52.3355 100.383 51.2636C100.383 50.1917 101.203 49.3721 102.275 49.3721H108.769C109.841 49.3721 110.661 50.1917 110.661 51.2636C110.661 52.2724 109.841 53.1552 108.769 53.1552Z" fill="white"/>
<path d="M96.6002 87.3922H59.3997C55.2383 87.3922 51.8335 83.9874 51.8335 79.826V45.2737C51.8335 40.0404 56.058 35.8159 61.2913 35.8159H94.7086C99.9419 35.8159 104.166 40.0404 104.166 45.2737V59.4603C104.166 60.5322 103.347 61.3519 102.275 61.3519H55.6166V79.826C55.6166 81.9067 57.319 83.6091 59.3997 83.6091H96.6002C98.6809 83.6091 100.383 81.9067 100.383 79.826V68.3506C100.383 67.2787 101.203 66.459 102.275 66.459C103.347 66.459 104.166 67.2787 104.166 68.3506V79.826C104.166 83.9874 100.762 87.3922 96.6002 87.3922ZM55.6166 57.5688H100.383V45.2737C100.383 42.1211 97.8612 39.599 94.7086 39.599H61.2913C58.1387 39.599 55.6166 42.1211 55.6166 45.2737V57.5688Z" fill="white"/>
</g>
<defs>
<clipPath id="clip0_1327_8707">
<rect width="100" height="100" fill="white" transform="translate(28 14)"/>
</clipPath>
</defs>
</svg>
